<svg width="16" height="16" viewBox="0 0 16 16" fill="none" xmlns="http://www.w3.org/2000/svg">
<path d="M15.7518 4.63153C15.7154 3.79528 15.5835 3.21897 15.3954 2.72011C15.201 2.19039 14.9026 1.71713 14.51 1.32264C14.1275 0.922893 13.6653 0.611761 13.1566 0.415498C12.6689 0.221862 12.1136 0.0859875 11.3002 0.0485729C10.481 0.00853276 10.2216 0 8.14398 0C6.06704 0 5.8063 0.00918935 4.99159 0.0459475C4.17879 0.0827057 3.61971 0.21858 3.13522 0.412217C2.62013 0.612418 2.1605 0.919611 1.77801 1.32264C1.38977 1.71713 1.0876 2.19368 0.895718 2.71748C0.707659 3.21897 0.576337 3.79069 0.54 4.62891C0.501113 5.47172 0.492188 5.73953 0.492188 7.87807C0.492188 10.0173 0.501751 10.2844 0.53745 11.1246C0.573149 11.9615 0.704471 12.5372 0.893169 13.036C1.08824 13.5664 1.38977 14.0383 1.77801 14.4322C2.1605 14.8319 2.62332 15.1437 3.13267 15.3413C3.61971 15.5349 4.1756 15.6701 4.9884 15.7069C5.80439 15.7456 6.06449 15.7535 8.14143 15.7535C10.2184 15.7535 10.4785 15.7437 11.2945 15.7069C12.1066 15.6701 12.6663 15.5349 13.1508 15.3413C14.1778 14.9317 14.9919 14.0955 15.3891 13.036C15.5778 12.5332 15.7091 11.9615 15.7454 11.1246C15.7824 10.2844 15.79 10.0166 15.79 7.87807C15.79 5.73953 15.7875 5.47172 15.7518 4.63153ZM14.3742 11.0636C14.3404 11.8329 14.2154 12.2497 14.1103 12.5267C13.854 13.2133 13.3255 13.7574 12.6587 14.0213C12.3903 14.1289 11.9829 14.2576 11.2384 14.2917C10.4307 14.3291 10.189 14.3377 8.14781 14.3377C6.10656 14.3377 5.86113 14.3278 5.05725 14.2917C4.31012 14.2576 3.90595 14.1289 3.63693 14.0213C3.30479 13.8953 3.0039 13.6957 2.75846 13.4331C2.50411 13.1772 2.30967 12.87 2.18727 12.528C2.08209 12.251 1.95714 11.8322 1.92399 11.0655C1.88765 10.2339 1.87873 9.9851 1.87873 7.88266C1.87873 5.78088 1.88829 5.52883 1.92399 4.70045C1.95714 3.93116 2.08209 3.51566 2.18727 3.23866C2.30967 2.89733 2.50411 2.5862 2.76101 2.33415C3.009 2.07224 3.30734 1.87204 3.63947 1.74601C3.9085 1.63771 4.31521 1.50905 5.0598 1.47492C5.86687 1.43816 6.10911 1.42897 8.14972 1.42897C10.1935 1.42897 10.437 1.43816 11.2409 1.47492C11.988 1.50905 12.3922 1.63771 12.6612 1.74601C12.9934 1.87204 13.2949 2.07224 13.5403 2.33415C13.7934 2.58948 13.9879 2.89668 14.1109 3.23866C14.2161 3.51566 14.341 3.93444 14.3748 4.70045C14.4105 5.53145 14.4188 5.78088 14.4188 7.88266C14.4188 9.98576 14.4099 10.2319 14.3742 11.0636ZM8.14525 3.83138C5.97651 3.83138 4.21513 5.64369 4.21513 7.87807C4.21513 10.1118 5.97588 11.9248 8.14525 11.9248C10.3153 11.9248 12.076 10.1118 12.076 7.87807C12.0754 5.64435 10.3146 3.83138 8.14525 3.83138ZM8.14525 10.503C6.73831 10.503 5.59593 9.32805 5.59593 7.87807C5.59593 6.42874 6.73831 5.25248 8.14525 5.25248C9.55347 5.25248 10.6946 6.42809 10.6946 7.87807C10.6946 9.32805 9.55347 10.503 8.14525 10.503ZM12.2309 2.72667C11.7248 2.72667 11.3142 3.15004 11.3142 3.67122C11.3142 4.1924 11.7254 4.61578 12.2309 4.61578C12.7365 4.61578 13.1489 4.19306 13.1489 3.67122C13.1489 3.14939 12.7371 2.72667 12.2309 2.72667Z" fill="#3591D0"/>
</svg>
