<svg width="20" height="20" viewBox="0 0 20 20" fill="none" xmlns="http://www.w3.org/2000/svg">
<path id="Vector" d="M18.6508 20C16.3604 20 14.0971 19.5011 11.8611 18.5033C9.62498 17.5055 7.58818 16.0903 5.75064 14.2577C3.91311 12.4208 2.49528 10.3835 1.49716 8.14604C0.499052 5.90854 0 3.64495 0 1.35528C0 0.968676 0.128185 0.646146 0.384554 0.387687C0.640923 0.129229 0.962471 0 1.3492 0H5.74475C6.098 0 6.40024 0.104427 6.65149 0.313284C6.90275 0.522141 7.05949 0.789754 7.12172 1.11612L7.82172 4.7827C7.87527 5.13741 7.86729 5.43818 7.79778 5.68501C7.72827 5.93186 7.59507 6.14721 7.39818 6.33106L4.72339 8.94119C5.06836 9.5636 5.47695 10.1699 5.94914 10.76C6.42132 11.3501 6.94765 11.9263 7.52812 12.4885C8.06805 13.0282 8.62431 13.5229 9.1969 13.9725C9.76951 14.4221 10.3697 14.8287 10.9974 15.1925L13.5972 12.6131C13.8079 12.4068 14.0662 12.2586 14.3722 12.1684C14.6782 12.0783 14.9905 12.06 15.3091 12.1135L18.8835 12.8546C19.2281 12.953 19.5003 13.12 19.7002 13.3557C19.9001 13.5913 20 13.8723 20 14.1986V18.6447C20 19.0313 19.8707 19.3539 19.6122 19.6123C19.3536 19.8708 19.0332 20 18.6508 20Z" fill="#3591D0"/>
</svg>
