<svg width="19" height="16" viewBox="0 0 19 16" fill="none" xmlns="http://www.w3.org/2000/svg">
<path d="M0.428546 8.16557L3.78544 9.44753C4.47841 9.71243 5.25345 9.61903 5.86868 9.19681L13.0211 4.28718C13.1837 4.17599 13.3988 4.19795 13.5373 4.33971C13.7009 4.50843 13.696 4.78445 13.5254 4.94678L8.23295 9.99067C7.93114 10.2781 7.95489 10.7762 8.28208 11.0322L13.8723 15.4017C14.8801 16.1895 16.3394 15.5821 16.5327 14.2957L18.4783 1.35997C18.6154 0.448254 17.7275 -0.264439 16.9023 0.0949645L0.409107 7.27943C0.237686 7.35365 0.126465 7.52681 0.126465 7.71861C0.126465 7.91791 0.246866 8.09636 0.428546 8.16557Z" fill="#3591D0"/>
</svg>
